<mxfile host="65bd71144e">
    <diagram id="sNV6Xu8U-iDpk_WQq7km" name="Fluxo inicial">
        <mxGraphModel dx="1074" dy="518" grid="1" gridSize="10" guides="1" tooltips="1" connect="1" arrows="1" fold="1" page="1" pageScale="1" pageWidth="827" pageHeight="1169" math="0" shadow="0">
            <root>
                <mxCell id="0"/>
                <mxCell id="1" parent="0"/>
                <mxCell id="2" value="Home&lt;br&gt;(ANGULAR)" style="rounded=1;whiteSpace=wrap;html=1;fillColor=#60a917;strokeColor=#2D7600;fontColor=#ffffff;" parent="1" vertex="1">
                    <mxGeometry x="441" y="20" width="120" height="60" as="geometry"/>
                </mxCell>
                <mxCell id="4" value="Cadastro&lt;br&gt;(SSO)" style="rounded=1;whiteSpace=wrap;html=1;fillColor=#e3c800;strokeColor=#B09500;fontColor=#000000;" parent="1" vertex="1">
                    <mxGeometry x="211" y="120" width="120" height="60" as="geometry"/>
                </mxCell>
                <mxCell id="7" value="Confirmação&lt;br&gt;de e-mail&lt;br&gt;(SSO)" style="rounded=1;whiteSpace=wrap;html=1;fillColor=#e3c800;strokeColor=#B09500;fontColor=#000000;" parent="1" vertex="1">
                    <mxGeometry x="211" y="220" width="120" height="60" as="geometry"/>
                </mxCell>
                <mxCell id="8" value="E-mail&lt;br&gt;confirmado&lt;br&gt;(SSO)" style="rounded=1;whiteSpace=wrap;html=1;fillColor=#e3c800;strokeColor=#B09500;fontColor=#000000;" parent="1" vertex="1">
                    <mxGeometry x="211" y="320" width="120" height="60" as="geometry"/>
                </mxCell>
                <mxCell id="10" value="" style="endArrow=classic;html=1;entryX=0.25;entryY=1;entryDx=0;entryDy=0;exitX=1;exitY=0.5;exitDx=0;exitDy=0;" parent="1" source="8" target="11" edge="1">
                    <mxGeometry width="50" height="50" relative="1" as="geometry">
                        <mxPoint x="251" y="520" as="sourcePoint"/>
                        <mxPoint x="571" y="350" as="targetPoint"/>
                        <Array as="points">
                            <mxPoint x="381" y="350"/>
                            <mxPoint x="381" y="210"/>
                            <mxPoint x="471" y="210"/>
                        </Array>
                    </mxGeometry>
                </mxCell>
                <mxCell id="11" value="Login&lt;br&gt;(SSO)" style="rounded=1;whiteSpace=wrap;html=1;fillColor=#e3c800;strokeColor=#B09500;fontColor=#000000;" parent="1" vertex="1">
                    <mxGeometry x="441" y="120" width="120" height="60" as="geometry"/>
                </mxCell>
                <mxCell id="13" value="" style="endArrow=classic;html=1;exitX=0.5;exitY=1;exitDx=0;exitDy=0;" parent="1" source="2" target="11" edge="1">
                    <mxGeometry width="50" height="50" relative="1" as="geometry">
                        <mxPoint x="261" y="530" as="sourcePoint"/>
                        <mxPoint x="551" y="410" as="targetPoint"/>
                    </mxGeometry>
                </mxCell>
                <mxCell id="14" value="" style="endArrow=classic;html=1;exitX=0;exitY=0.5;exitDx=0;exitDy=0;" parent="1" source="2" edge="1">
                    <mxGeometry width="50" height="50" relative="1" as="geometry">
                        <mxPoint x="421" y="440" as="sourcePoint"/>
                        <mxPoint x="271" y="120" as="targetPoint"/>
                        <Array as="points">
                            <mxPoint x="271" y="50"/>
                        </Array>
                    </mxGeometry>
                </mxCell>
                <mxCell id="16" value="Terminar cadastro&lt;br&gt;(ANGULAR)" style="rounded=1;whiteSpace=wrap;html=1;fillColor=#60a917;strokeColor=#2D7600;fontColor=#ffffff;" parent="1" vertex="1">
                    <mxGeometry x="441" y="360" width="120" height="60" as="geometry"/>
                </mxCell>
                <mxCell id="17" value="" style="endArrow=classic;html=1;exitX=0.5;exitY=1;exitDx=0;exitDy=0;entryX=0.5;entryY=0;entryDx=0;entryDy=0;" parent="1" source="11" target="16" edge="1">
                    <mxGeometry width="50" height="50" relative="1" as="geometry">
                        <mxPoint x="491" y="560" as="sourcePoint"/>
                        <mxPoint x="541" y="510" as="targetPoint"/>
                    </mxGeometry>
                </mxCell>
                <mxCell id="18" value="" style="endArrow=classic;html=1;entryX=0.5;entryY=0;entryDx=0;entryDy=0;exitX=0.5;exitY=1;exitDx=0;exitDy=0;" parent="1" source="4" target="7" edge="1">
                    <mxGeometry width="50" height="50" relative="1" as="geometry">
                        <mxPoint x="141" y="379.9999999999999" as="sourcePoint"/>
                        <mxPoint x="281" y="490" as="targetPoint"/>
                    </mxGeometry>
                </mxCell>
                <mxCell id="19" value="" style="endArrow=classic;html=1;exitX=0.5;exitY=1;exitDx=0;exitDy=0;entryX=0.5;entryY=0;entryDx=0;entryDy=0;" parent="1" source="7" target="8" edge="1">
                    <mxGeometry width="50" height="50" relative="1" as="geometry">
                        <mxPoint x="231" y="540" as="sourcePoint"/>
                        <mxPoint x="281" y="490" as="targetPoint"/>
                    </mxGeometry>
                </mxCell>
                <mxCell id="20" value="Esqueci senha&lt;br&gt;(SSO)" style="rounded=1;whiteSpace=wrap;html=1;fillColor=#e3c800;strokeColor=#B09500;fontColor=#000000;" parent="1" vertex="1">
                    <mxGeometry x="571" y="220" width="120" height="60" as="geometry"/>
                </mxCell>
                <mxCell id="21" value="" style="endArrow=classic;html=1;entryX=0.5;entryY=0;entryDx=0;entryDy=0;exitX=1;exitY=0.5;exitDx=0;exitDy=0;" parent="1" source="11" target="20" edge="1">
                    <mxGeometry width="50" height="50" relative="1" as="geometry">
                        <mxPoint x="571" y="200" as="sourcePoint"/>
                        <mxPoint x="591" y="380" as="targetPoint"/>
                        <Array as="points">
                            <mxPoint x="631" y="150"/>
                        </Array>
                    </mxGeometry>
                </mxCell>
                <mxCell id="23" value="" style="endArrow=classic;html=1;exitX=0;exitY=0.75;exitDx=0;exitDy=0;entryX=0.75;entryY=1;entryDx=0;entryDy=0;" parent="1" source="20" target="11" edge="1">
                    <mxGeometry width="50" height="50" relative="1" as="geometry">
                        <mxPoint x="671" y="240" as="sourcePoint"/>
                        <mxPoint x="611" y="180" as="targetPoint"/>
                        <Array as="points">
                            <mxPoint x="531" y="265"/>
                        </Array>
                    </mxGeometry>
                </mxCell>
                <mxCell id="24" value="" style="endArrow=classic;html=1;entryX=1;entryY=0.5;entryDx=0;entryDy=0;" parent="1" source="11" target="4" edge="1">
                    <mxGeometry width="50" height="50" relative="1" as="geometry">
                        <mxPoint x="531" y="240" as="sourcePoint"/>
                        <mxPoint x="551" y="240" as="targetPoint"/>
                    </mxGeometry>
                </mxCell>
                <mxCell id="25" value="Consultar dívida&lt;br&gt;(INTEGRAÇÃO)" style="rounded=1;whiteSpace=wrap;html=1;fillColor=#6a00ff;strokeColor=#3700CC;fontColor=#ffffff;" parent="1" vertex="1">
                    <mxGeometry x="671" y="120" width="120" height="60" as="geometry"/>
                </mxCell>
                <mxCell id="26" value="" style="endArrow=classic;html=1;exitX=1;exitY=0.5;exitDx=0;exitDy=0;entryX=0.5;entryY=0;entryDx=0;entryDy=0;" parent="1" source="2" target="25" edge="1">
                    <mxGeometry width="50" height="50" relative="1" as="geometry">
                        <mxPoint x="530.52" y="100.00486973947892" as="sourcePoint"/>
                        <mxPoint x="731" y="120" as="targetPoint"/>
                        <Array as="points">
                            <mxPoint x="731" y="50"/>
                        </Array>
                    </mxGeometry>
                </mxCell>
                <mxCell id="27" value="Card Credor" style="rounded=1;whiteSpace=wrap;html=1;fillColor=#e51400;strokeColor=#B20000;fontColor=#ffffff;" parent="1" vertex="1">
                    <mxGeometry x="321" y="440" width="120" height="40" as="geometry"/>
                </mxCell>
                <mxCell id="28" value="Card Devedor" style="rounded=1;whiteSpace=wrap;html=1;fillColor=#e51400;strokeColor=#B20000;fontColor=#ffffff;" parent="1" vertex="1">
                    <mxGeometry x="561" y="440" width="120" height="40" as="geometry"/>
                </mxCell>
                <mxCell id="29" value="cadastro-devedor&lt;br&gt;(ANGULAR)" style="rounded=1;whiteSpace=wrap;html=1;fillColor=#60a917;fontColor=#ffffff;strokeColor=#2D7600;" parent="1" vertex="1">
                    <mxGeometry x="321" y="510" width="120" height="60" as="geometry"/>
                </mxCell>
                <mxCell id="30" value="cadastro&lt;br&gt;(ANGULAR)" style="rounded=1;whiteSpace=wrap;html=1;fillColor=#60a917;fontColor=#ffffff;strokeColor=#2D7600;" parent="1" vertex="1">
                    <mxGeometry x="561" y="510" width="120" height="60" as="geometry"/>
                </mxCell>
                <mxCell id="31" value="" style="endArrow=classic;html=1;exitX=0.5;exitY=1;exitDx=0;exitDy=0;entryX=0.5;entryY=0;entryDx=0;entryDy=0;" parent="1" source="27" target="29" edge="1">
                    <mxGeometry width="50" height="50" relative="1" as="geometry">
                        <mxPoint x="380.5" y="530" as="sourcePoint"/>
                        <mxPoint x="380.5" y="670" as="targetPoint"/>
                    </mxGeometry>
                </mxCell>
                <mxCell id="32" value="" style="endArrow=classic;html=1;exitX=0.5;exitY=1;exitDx=0;exitDy=0;entryX=0.5;entryY=0;entryDx=0;entryDy=0;" parent="1" source="28" target="30" edge="1">
                    <mxGeometry width="50" height="50" relative="1" as="geometry">
                        <mxPoint x="621" y="520" as="sourcePoint"/>
                        <mxPoint x="631" y="530" as="targetPoint"/>
                    </mxGeometry>
                </mxCell>
                <mxCell id="33" value="" style="endArrow=classic;html=1;entryX=0.5;entryY=0;entryDx=0;entryDy=0;exitX=0;exitY=0.5;exitDx=0;exitDy=0;" parent="1" source="16" target="27" edge="1">
                    <mxGeometry width="50" height="50" relative="1" as="geometry">
                        <mxPoint x="421" y="419" as="sourcePoint"/>
                        <mxPoint x="311" y="419" as="targetPoint"/>
                        <Array as="points">
                            <mxPoint x="411" y="390"/>
                            <mxPoint x="411" y="420"/>
                            <mxPoint x="381" y="420"/>
                        </Array>
                    </mxGeometry>
                </mxCell>
                <mxCell id="34" value="" style="endArrow=classic;html=1;exitX=1;exitY=0.5;exitDx=0;exitDy=0;entryX=0.5;entryY=0;entryDx=0;entryDy=0;" parent="1" source="16" target="28" edge="1">
                    <mxGeometry width="50" height="50" relative="1" as="geometry">
                        <mxPoint x="681" y="390" as="sourcePoint"/>
                        <mxPoint x="631" y="440" as="targetPoint"/>
                        <Array as="points">
                            <mxPoint x="591" y="390"/>
                            <mxPoint x="591" y="420"/>
                            <mxPoint x="621" y="420"/>
                        </Array>
                    </mxGeometry>
                </mxCell>
                <mxCell id="35" value="Etapas exibidas dentro da tela cadastro-devedor. Formulário em modelo de Slider.&lt;br&gt;&lt;br&gt;&lt;ol&gt;&lt;li style=&quot;text-align: left&quot;&gt;CPF ou CPNJ&lt;/li&gt;&lt;li style=&quot;text-align: left&quot;&gt;RG&lt;/li&gt;&lt;li style=&quot;text-align: left&quot;&gt;Nome/Razão Social&lt;/li&gt;&lt;li style=&quot;text-align: left&quot;&gt;Data de nascimento&lt;/li&gt;&lt;li style=&quot;text-align: left&quot;&gt;E-mail&lt;/li&gt;&lt;li style=&quot;text-align: left&quot;&gt;Estado Civil&lt;/li&gt;&lt;li style=&quot;text-align: left&quot;&gt;Telefone fixo&lt;/li&gt;&lt;li style=&quot;text-align: left&quot;&gt;Telefone celular&lt;/li&gt;&lt;li style=&quot;text-align: left&quot;&gt;Endereço&lt;br&gt;&lt;/li&gt;&lt;li style=&quot;text-align: left&quot;&gt;Banco&lt;/li&gt;&lt;li style=&quot;text-align: left&quot;&gt;Nome/Razão&lt;/li&gt;&lt;li style=&quot;text-align: left&quot;&gt;Agência&lt;/li&gt;&lt;li style=&quot;text-align: left&quot;&gt;Conta&lt;/li&gt;&lt;li style=&quot;text-align: left&quot;&gt;Adicionar procuradores&lt;/li&gt;&lt;li style=&quot;text-align: left&quot;&gt;Adicionar funcionários&lt;/li&gt;&lt;li style=&quot;text-align: left&quot;&gt;Termos de serviço&lt;/li&gt;&lt;/ol&gt;" style="rounded=0;whiteSpace=wrap;html=1;fillColor=#008a00;fontColor=#ffffff;strokeColor=none;" parent="1" vertex="1">
                    <mxGeometry x="241" y="570" width="200" height="440" as="geometry"/>
                </mxCell>
                <mxCell id="36" value="Botão Continuar" style="rounded=1;whiteSpace=wrap;html=1;fillColor=#e51400;strokeColor=#B20000;fontColor=#ffffff;" parent="1" vertex="1">
                    <mxGeometry x="321" y="1010" width="120" height="40" as="geometry"/>
                </mxCell>
                <mxCell id="37" value="Print dos dados preenchidos&lt;br&gt;(ANGULAR)" style="rounded=1;whiteSpace=wrap;html=1;fillColor=#60a917;strokeColor=#2D7600;fontColor=#ffffff;" parent="1" vertex="1">
                    <mxGeometry x="360" y="1120" width="280" height="60" as="geometry"/>
                </mxCell>
                <mxCell id="38" value="Botão Editar" style="rounded=1;whiteSpace=wrap;html=1;fillColor=#e51400;strokeColor=#B20000;fontColor=#ffffff;" parent="1" vertex="1">
                    <mxGeometry x="361" y="1180" width="120" height="40" as="geometry"/>
                </mxCell>
                <mxCell id="39" value="Botão Continuar" style="rounded=1;whiteSpace=wrap;html=1;fillColor=#e51400;strokeColor=#B20000;fontColor=#ffffff;" parent="1" vertex="1">
                    <mxGeometry x="521" y="1180" width="120" height="40" as="geometry"/>
                </mxCell>
                <mxCell id="40" value="Dashboard&lt;br&gt;(ANGULAR)" style="rounded=1;whiteSpace=wrap;html=1;fillColor=#60a917;strokeColor=#2D7600;fontColor=#ffffff;" parent="1" vertex="1">
                    <mxGeometry x="441" y="1280" width="120" height="60" as="geometry"/>
                </mxCell>
                <mxCell id="41" value="" style="endArrow=classic;html=1;entryX=0;entryY=0.5;entryDx=0;entryDy=0;exitX=0;exitY=0.5;exitDx=0;exitDy=0;" parent="1" source="38" target="35" edge="1">
                    <mxGeometry width="50" height="50" relative="1" as="geometry">
                        <mxPoint x="161" y="1060" as="sourcePoint"/>
                        <mxPoint x="170.99999999999977" y="700" as="targetPoint"/>
                        <Array as="points">
                            <mxPoint x="161" y="1200"/>
                            <mxPoint x="161" y="790"/>
                        </Array>
                    </mxGeometry>
                </mxCell>
                <mxCell id="44" value="Etapas exibidas dentro da tela cadastro. Formulário em&lt;br&gt;modelo de Slider.&lt;br&gt;&lt;ol&gt;&lt;li style=&quot;text-align: left&quot;&gt;CPF ou CPNJ&lt;/li&gt;&lt;li style=&quot;text-align: left&quot;&gt;RG&lt;/li&gt;&lt;li style=&quot;text-align: left&quot;&gt;Nome/Razão Social&lt;/li&gt;&lt;li style=&quot;text-align: left&quot;&gt;Data de nascimento&lt;/li&gt;&lt;li style=&quot;text-align: left&quot;&gt;E-mail&lt;/li&gt;&lt;li style=&quot;text-align: left&quot;&gt;Estado Civil&lt;/li&gt;&lt;li style=&quot;text-align: left&quot;&gt;Telefone fixo&lt;/li&gt;&lt;li style=&quot;text-align: left&quot;&gt;Telefone celular&lt;/li&gt;&lt;li style=&quot;text-align: left&quot;&gt;Endereço&lt;/li&gt;&lt;/ol&gt;" style="rounded=0;whiteSpace=wrap;html=1;fillColor=#008a00;fontColor=#ffffff;strokeColor=none;" parent="1" vertex="1">
                    <mxGeometry x="561" y="570" width="200" height="280" as="geometry"/>
                </mxCell>
                <mxCell id="45" value="" style="endArrow=classic;html=1;exitX=0.5;exitY=1;exitDx=0;exitDy=0;entryX=0.5;entryY=0;entryDx=0;entryDy=0;" parent="1" source="36" target="37" edge="1">
                    <mxGeometry width="50" height="50" relative="1" as="geometry">
                        <mxPoint x="380.76" y="1060" as="sourcePoint"/>
                        <mxPoint x="391" y="1080" as="targetPoint"/>
                        <Array as="points">
                            <mxPoint x="381" y="1080"/>
                            <mxPoint x="501" y="1080"/>
                        </Array>
                    </mxGeometry>
                </mxCell>
                <mxCell id="46" value="Botão Continuar" style="rounded=1;whiteSpace=wrap;html=1;fillColor=#e51400;strokeColor=#B20000;fontColor=#ffffff;" parent="1" vertex="1">
                    <mxGeometry x="561" y="850" width="120" height="40" as="geometry"/>
                </mxCell>
                <mxCell id="47" value="" style="endArrow=classic;html=1;entryX=1;entryY=0.5;entryDx=0;entryDy=0;exitX=0.5;exitY=1;exitDx=0;exitDy=0;" parent="1" source="46" target="39" edge="1">
                    <mxGeometry width="50" height="50" relative="1" as="geometry">
                        <mxPoint x="671" y="1325" as="sourcePoint"/>
                        <mxPoint x="671" y="1050" as="targetPoint"/>
                        <Array as="points">
                            <mxPoint x="621" y="1070"/>
                            <mxPoint x="691" y="1070"/>
                            <mxPoint x="691" y="1200"/>
                        </Array>
                    </mxGeometry>
                </mxCell>
                <mxCell id="48" value="" style="endArrow=classic;html=1;exitX=0.5;exitY=1;exitDx=0;exitDy=0;entryX=0.5;entryY=0;entryDx=0;entryDy=0;" parent="1" source="39" target="40" edge="1">
                    <mxGeometry width="50" height="50" relative="1" as="geometry">
                        <mxPoint x="580.8" y="1030" as="sourcePoint"/>
                        <mxPoint x="580.8" y="1060" as="targetPoint"/>
                        <Array as="points">
                            <mxPoint x="581" y="1250"/>
                            <mxPoint x="501" y="1250"/>
                        </Array>
                    </mxGeometry>
                </mxCell>
                <mxCell id="49" value="&lt;b&gt;Página SSO&lt;/b&gt;" style="rounded=1;whiteSpace=wrap;html=1;fillColor=#e3c800;strokeColor=#B09500;fontColor=#000000;" parent="1" vertex="1">
                    <mxGeometry x="41" y="120" width="120" height="40" as="geometry"/>
                </mxCell>
                <mxCell id="50" value="&lt;b&gt;Página Angular&lt;/b&gt;" style="rounded=1;whiteSpace=wrap;html=1;fillColor=#60a917;strokeColor=#2D7600;fontColor=#ffffff;" parent="1" vertex="1">
                    <mxGeometry x="41" y="170" width="120" height="40" as="geometry"/>
                </mxCell>
                <mxCell id="51" value="&lt;b&gt;Integração&lt;/b&gt;" style="rounded=1;whiteSpace=wrap;html=1;fillColor=#6a00ff;strokeColor=#3700CC;fontColor=#ffffff;" parent="1" vertex="1">
                    <mxGeometry x="41" y="270" width="120" height="40" as="geometry"/>
                </mxCell>
                <mxCell id="52" value="&lt;b&gt;Opção usuário&lt;/b&gt;" style="rounded=1;whiteSpace=wrap;html=1;fillColor=#e51400;strokeColor=#B20000;fontColor=#ffffff;" parent="1" vertex="1">
                    <mxGeometry x="41" y="320" width="120" height="40" as="geometry"/>
                </mxCell>
                <mxCell id="53" value="&lt;b style=&quot;font-size: 24px;&quot;&gt;Índice&lt;/b&gt;" style="text;html=1;align=center;verticalAlign=middle;resizable=0;points=[];autosize=1;strokeColor=none;fontSize=24;" parent="1" vertex="1">
                    <mxGeometry x="41" y="80" width="80" height="30" as="geometry"/>
                </mxCell>
                <mxCell id="54" value="&lt;b&gt;Conteúdo Slider&lt;/b&gt;" style="rounded=1;whiteSpace=wrap;html=1;fillColor=#008a00;strokeColor=#005700;fontColor=#ffffff;" parent="1" vertex="1">
                    <mxGeometry x="41" y="220" width="120" height="40" as="geometry"/>
                </mxCell>
            </root>
        </mxGraphModel>
    </diagram>
    <diagram id="yCUE-sluDngQxomW5ffB" name="Layout Cadastro de dívida">
        <mxGraphModel dx="782" dy="357" grid="1" gridSize="10" guides="1" tooltips="1" connect="1" arrows="1" fold="1" page="1" pageScale="1" pageWidth="827" pageHeight="1169" math="0" shadow="0">
            <root>
                <mxCell id="kk5aFR54gfi8LXlrykcE-0"/>
                <mxCell id="kk5aFR54gfi8LXlrykcE-1" parent="kk5aFR54gfi8LXlrykcE-0"/>
                <mxCell id="kk5aFR54gfi8LXlrykcE-2" value="" style="rounded=0;whiteSpace=wrap;html=1;fillColor=#0050ef;strokeColor=#001DBC;fontColor=#ffffff;" parent="kk5aFR54gfi8LXlrykcE-1" vertex="1">
                    <mxGeometry x="140" y="390" width="480" height="290" as="geometry"/>
                </mxCell>
                <mxCell id="kk5aFR54gfi8LXlrykcE-3" value="" style="rounded=0;whiteSpace=wrap;html=1;fillColor=#60a917;strokeColor=#2D7600;fontColor=#ffffff;" parent="kk5aFR54gfi8LXlrykcE-1" vertex="1">
                    <mxGeometry x="240" y="440" width="80" height="40" as="geometry"/>
                </mxCell>
                <mxCell id="kk5aFR54gfi8LXlrykcE-4" value="" style="rounded=0;whiteSpace=wrap;html=1;fillColor=#fad7ac;strokeColor=#b46504;" parent="kk5aFR54gfi8LXlrykcE-1" vertex="1">
                    <mxGeometry x="240" y="490" width="80" height="40" as="geometry"/>
                </mxCell>
                <mxCell id="kk5aFR54gfi8LXlrykcE-5" value="" style="rounded=0;whiteSpace=wrap;html=1;fillColor=#fad7ac;strokeColor=#b46504;" parent="kk5aFR54gfi8LXlrykcE-1" vertex="1">
                    <mxGeometry x="240" y="540" width="80" height="40" as="geometry"/>
                </mxCell>
                <mxCell id="kk5aFR54gfi8LXlrykcE-6" value="" style="rounded=0;whiteSpace=wrap;html=1;fillColor=#fad7ac;strokeColor=#b46504;" parent="kk5aFR54gfi8LXlrykcE-1" vertex="1">
                    <mxGeometry x="240" y="590" width="80" height="40" as="geometry"/>
                </mxCell>
                <mxCell id="kk5aFR54gfi8LXlrykcE-7" value="" style="whiteSpace=wrap;html=1;aspect=fixed;fillColor=#f9f7ed;strokeColor=#36393d;" parent="kk5aFR54gfi8LXlrykcE-1" vertex="1">
                    <mxGeometry x="330" y="440" width="190" height="190" as="geometry"/>
                </mxCell>
                <mxCell id="kk5aFR54gfi8LXlrykcE-8" value="" style="rounded=0;whiteSpace=wrap;html=1;fillColor=#eeeeee;strokeColor=#36393d;" parent="kk5aFR54gfi8LXlrykcE-1" vertex="1">
                    <mxGeometry x="340" y="460" width="160" height="20" as="geometry"/>
                </mxCell>
                <mxCell id="kk5aFR54gfi8LXlrykcE-9" value="" style="rounded=0;whiteSpace=wrap;html=1;fillColor=#eeeeee;strokeColor=#36393d;" parent="kk5aFR54gfi8LXlrykcE-1" vertex="1">
                    <mxGeometry x="340" y="490" width="160" height="20" as="geometry"/>
                </mxCell>
                <mxCell id="kk5aFR54gfi8LXlrykcE-10" value="" style="rounded=0;whiteSpace=wrap;html=1;fillColor=#eeeeee;strokeColor=#36393d;" parent="kk5aFR54gfi8LXlrykcE-1" vertex="1">
                    <mxGeometry x="340" y="520" width="160" height="20" as="geometry"/>
                </mxCell>
                <mxCell id="kk5aFR54gfi8LXlrykcE-11" value="" style="rounded=0;whiteSpace=wrap;html=1;fillColor=#eeeeee;strokeColor=#36393d;" parent="kk5aFR54gfi8LXlrykcE-1" vertex="1">
                    <mxGeometry x="340" y="550" width="160" height="20" as="geometry"/>
                </mxCell>
                <mxCell id="kk5aFR54gfi8LXlrykcE-12" value="" style="rounded=0;whiteSpace=wrap;html=1;fillColor=#0050ef;strokeColor=#001DBC;fontColor=#ffffff;" parent="kk5aFR54gfi8LXlrykcE-1" vertex="1">
                    <mxGeometry x="460" y="580" width="40" height="20" as="geometry"/>
                </mxCell>
                <mxCell id="kk5aFR54gfi8LXlrykcE-13" value="" style="rounded=0;whiteSpace=wrap;html=1;fillColor=#f9f7ed;strokeColor=#36393d;" parent="kk5aFR54gfi8LXlrykcE-1" vertex="1">
                    <mxGeometry x="410" y="580" width="40" height="20" as="geometry"/>
                </mxCell>
            </root>
        </mxGraphModel>
    </diagram>
</mxfile>
